<svg xmlns="http://www.w3.org/2000/svg" viewBox="0 0 1975.99 348.99"><defs><style>.cls-1{fill:#00b2ff;}</style></defs><title>Layer 1 (4)</title><g id="Layer_2" data-name="Layer 2"><g id="Layer_1-2" data-name="Layer 1"><path class="cls-1" d="M546.29,165.7,385.05,4.46a14.85,14.85,0,0,0-21-.21L279.11,89.13l27.58,27.58a24.83,24.83,0,0,1,4.8-6.72c10-10,26.48-9.87,36.71.36s10.39,26.66.35,36.69a24.87,24.87,0,0,1-6.73,4.8l8,8a16.69,16.69,0,0,1,0,23.61l-71.79,71.79,89.27,89.27a14.86,14.86,0,0,0,21,.21L546.49,186.69A14.83,14.83,0,0,0,546.29,165.7ZM359,62.48a26.21,26.21,0,1,1,.35,36.69A26,26,0,0,1,359,62.48ZM393.66,287.2c-10,10-26.47,9.86-36.7-.37a26,26,0,0,1-.36-36.69c10-10,26.48-9.87,36.71.36A26,26,0,0,1,393.66,287.2Zm47.54-47.51a26,26,0,0,1-36.71-.36c-10.23-10.24-10.39-26.67-.35-36.7s26.47-9.86,36.71.37A25.94,25.94,0,0,1,441.2,239.69Zm47.54-47.5a26.21,26.21,0,1,1-.36-36.69A26,26,0,0,1,488.74,192.19Z"/><path class="cls-1" d="M594.55,29.84h5c19.07,0,50.57-1.24,74.19-1.24,116.06,0,162.89,66.73,162.89,142.58,0,82.48-55.54,149.62-166.2,149.62-19.48,0-46.84-.83-71.29-.83h-4.56ZM629.78,63V286.82c19.07.41,36.89.83,41.86.83,82.9,0,127.66-48.91,127.66-116.47,0-63-42.28-109.42-126.41-109.42C655.48,61.76,644.29,62.59,629.78,63Z"/><path class="cls-1" d="M913.7,43.52c10.36,0,20.31,7.87,20.31,19.89C934,77.09,924.06,85,913.7,85c-11.61,0-21.55-7.88-21.55-21.56C892.15,51.39,902.09,43.52,913.7,43.52Zm-17.41,89.94h33.16V320H896.29Z"/><path class="cls-1" d="M1157.41,293c-15.75,20.31-43.11,31.09-71.71,31.09-59.27,0-99.89-38.55-99.89-97.4,0-54.3,39.79-97.4,94.5-97.4,29.85,0,56,7,73.37,24.45l-15.34,26.11c-15.75-14.5-34-19.48-53.47-19.48-33.57,0-63.82,26.94-63.82,66.32,0,41,30.25,66.31,67.14,66.31a70.71,70.71,0,0,0,53.47-24Z"/><path class="cls-1" d="M1348.07,299.66c-18.24,16.58-45.18,24.46-70,24.46-60.51,0-99.88-38.55-99.88-97.4,0-54.3,34.81-97.4,96.15-97.4,48.08,0,86.63,34,86.63,85.38a108.36,108.36,0,0,1-2.07,22.38H1215.44c2.9,35.23,28.6,55.95,65.07,55.95,24,0,45.18-8.29,57.2-19.48Zm-134.7-89.52h113.15c-1.66-30.67-21.55-49.74-53.88-49.74C1238.65,160.4,1217.1,181.54,1213.37,210.14Z"/><path class="cls-1" d="M1532.92,320.8h-38.54L1375,29.84h54.29L1515.52,245,1598,29.84h51Z"/><path class="cls-1" d="M1715.7,38.55a27.4,27.4,0,0,1,27.36,27.77c0,19.06-13.68,29.84-27.36,29.84-16.16,0-29.84-10.78-29.84-29.84C1685.86,49.32,1699.54,38.55,1715.7,38.55Zm-24.87,94.91h47.67V320h-47.67Z"/><path class="cls-1" d="M1928.33,300.49c-12.44,13.27-29.43,22.8-53.47,22.8-53.47,0-87.87-37.72-87.87-94.5,0-58.86,42.28-99.89,102.38-99.89,16.57,0,28.59,2.9,39,9.12V29.84H1976V320h-47.66Zm0-40.61v-75c-12-7.46-24-11.2-36.89-11.2-28.19,0-53.47,19.07-53.47,53.47,0,33.16,21.55,51.81,46.84,51.81C1902.21,278.94,1917.55,270.65,1928.33,259.88Z"/><path class="cls-1" d="M159.61,341.91,4.89,187.19a16.69,16.69,0,0,1,0-23.61L163.33,5.15a16.69,16.69,0,0,1,23.61,0L341.66,159.86a16.69,16.69,0,0,1,0,23.61L183.22,341.91A16.69,16.69,0,0,1,159.61,341.91ZM122.35,102.73c.13,48.86.07,97.71.08,146.56,0,4.93,2.65,8.37,7.09,9.29a3.43,3.43,0,0,0,2.5-.36c41.59-22.29,83.25-44.45,124.25-67.81A155.41,155.41,0,0,0,270,182.05c4.48-3.18,5.28-8.12,2.17-12.63a6.1,6.1,0,0,0-2.19-1.91q-68.66-38-137.32-76c-.47-.26-.91-.57-1.36-.86H129C123.37,92.82,122.34,97.22,122.35,102.73Z"/></g></g></svg>