<svg width="0" height="0" class="hidden">
  <symbol xmlns="http://www.w3.org/2000/svg" viewBox="0 0 32 32" id="icon-settings">
    <path d="M26 24H14.9c-.4-1.7-2-3-3.9-3s-3.4 1.3-3.9 3H6c-.6 0-1 .4-1 1s.4 1 1 1h1.1c.4 1.7 2 3 3.9 3s3.4-1.3 3.9-3H26c.6 0 1-.4 1-1s-.4-1-1-1zm-15 3.4c-1.3 0-2.4-1.1-2.4-2.4 0-1.3 1.1-2.4 2.4-2.4 1.3 0 2.4 1.1 2.4 2.4 0 1.3-1.1 2.4-2.4 2.4zM26 8H14.9c-.4-1.7-2-3-3.9-3S7.6 6.3 7.1 8H6c-.6 0-1 .4-1 1s.4 1 1 1h1.1c.4 1.7 2 3 3.9 3s3.4-1.3 3.9-3H26c.6 0 1-.4 1-1s-.4-1-1-1zm-15 3.4c-1.3 0-2.4-1.1-2.4-2.4 0-1.3 1.1-2.4 2.4-2.4 1.3 0 2.4 1.1 2.4 2.4 0 1.3-1.1 2.4-2.4 2.4zM26 16h-2.1c-.4-1.7-2-3-3.9-3s-3.4 1.3-3.9 3H6c-.6 0-1 .4-1 1s.4 1 1 1h10.1c.4 1.7 2 3 3.9 3s3.4-1.3 3.9-3H26c.6 0 1-.4 1-1s-.4-1-1-1zm-6 3.4c-1.3 0-2.4-1.1-2.4-2.4 0-1.3 1.1-2.4 2.4-2.4 1.3 0 2.4 1.1 2.4 2.4 0 1.3-1.1 2.4-2.4 2.4zM28 0H4C1.8 0 0 1.8 0 4v24c0 2.2 1.8 4 4 4h24c2.2 0 4-1.8 4-4V4c0-2.2-1.8-4-4-4zm2 28c0 1.1-.9 2-2 2H4c-1.1 0-2-.9-2-2V4c0-1.1.9-2 2-2h24c1.1 0 2 .9 2 2v24z"
      fill="#fff"></path>
  </symbol>
  <symbol xmlns="http://www.w3.org/2000/svg" viewBox="0 0 32 32" id="icon-twitter">
    <path fill="red" d="M32 3.1c-1.2.5-2.4.9-3.8 1 1.4-.8 2.4-2.1 2.9-3.6-1.3.8-2.7 1.3-4.2 1.6C25.8.8 24 0 22.2 0c-3.6 0-6.6 2.9-6.6 6.6 0 .5.1 1 .2 1.5-5.5-.3-10.3-2.9-13.6-6.9-.6 1-.9 2.1-.9 3.3 0 2.3 1.2 4.3 2.9 5.5-1.1 0-2.1-.3-3-.8v.1c0 3.2 2.3 5.8 5.3 6.4-.6.1-1.1.2-1.7.2-.4 0-.8 0-1.2-.1.8 2.6 3.3 4.5 6.1 4.6-2.2 1.8-5.1 2.8-8.2 2.8-.5 0-1.1 0-1.6-.1 2.9 1.9 6.4 3 10.1 3 12.1 0 18.7-10 18.7-18.7v-.8c1.3-1 2.4-2.2 3.3-3.5z"></path>
  </symbol>
  <symbol xmlns="http://www.w3.org/2000/svg" viewBox="0 0 32 32" id="icon-visits">
    <path d="M14 0h-2c-1.1 0-2 .9-2 2v28c0 1.1.9 2 2 2h2c1.1 0 2-.9 2-2V2c0-1.1-.9-2-2-2zm0 29c0 .6-.4 1-1 1s-1-.4-1-1V3c0-.6.4-1 1-1s1 .4 1 1v26zM4 9H2c-1.1 0-2 .9-2 2v19c0 1.1.9 2 2 2h2c1.1 0 2-.9 2-2V11c0-1.1-.9-2-2-2zm0 20c0 .6-.4 1-1 1s-1-.4-1-1V12c0-.6.4-1 1-1s1 .4 1 1v17zm20-13h-2c-1.1 0-2 .9-2 2v12c0 1.1.9 2 2 2h2c1.1 0 2-.9 2-2V18c0-1.1-.9-2-2-2zm0 13c0 .6-.4 1-1 1s-1-.4-1-1V19c0-.6.4-1 1-1s1 .4 1 1v10z"
      fill="#fff"></path>
  </symbol>
  <symbol xmlns="http://www.w3.org/2000/svg" viewBox="0 0 1975.99 348.99" id="DiceVid-SVG">
    <title>Layer 1 (4)</title>
    <path d="M546.29 165.7L385.05 4.46a14.85 14.85 0 0 0-21-.21l-84.94 84.88 27.58 27.58a24.83 24.83 0 0 1 4.8-6.72c10-10 26.48-9.87 36.71.36s10.39 26.66.35 36.69a24.87 24.87 0 0 1-6.73 4.8l8 8a16.69 16.69 0 0 1 0 23.61l-71.79 71.79 89.27 89.27a14.86 14.86 0 0 0 21 .21l158.19-158.03a14.83 14.83 0 0 0-.2-20.99zM359 62.48a26.21 26.21 0 1 1 .35 36.69 26 26 0 0 1-.35-36.69zm34.66 224.72c-10 10-26.47 9.86-36.7-.37a26 26 0 0 1-.36-36.69c10-10 26.48-9.87 36.71.36a26 26 0 0 1 .35 36.7zm47.54-47.51a26 26 0 0 1-36.71-.36c-10.23-10.24-10.39-26.67-.35-36.7s26.47-9.86 36.71.37a25.94 25.94 0 0 1 .35 36.69zm47.54-47.5a26.21 26.21 0 1 1-.36-36.69 26 26 0 0 1 .36 36.69zM594.55 29.84h5c19.07 0 50.57-1.24 74.19-1.24 116.06 0 162.89 66.73 162.89 142.58 0 82.48-55.54 149.62-166.2 149.62-19.48 0-46.84-.83-71.29-.83h-4.56zM629.78 63v223.82c19.07.41 36.89.83 41.86.83 82.9 0 127.66-48.91 127.66-116.47 0-63-42.28-109.42-126.41-109.42-17.41 0-28.6.83-43.11 1.24zM913.7 43.52c10.36 0 20.31 7.87 20.31 19.89C934 77.09 924.06 85 913.7 85c-11.61 0-21.55-7.88-21.55-21.56 0-12.05 9.94-19.92 21.55-19.92zm-17.41 89.94h33.16V320h-33.16zM1157.41 293c-15.75 20.31-43.11 31.09-71.71 31.09-59.27 0-99.89-38.55-99.89-97.4 0-54.3 39.79-97.4 94.5-97.4 29.85 0 56 7 73.37 24.45l-15.34 26.11c-15.75-14.5-34-19.48-53.47-19.48-33.57 0-63.82 26.94-63.82 66.32 0 41 30.25 66.31 67.14 66.31a70.71 70.71 0 0 0 53.47-24zm190.66 6.66c-18.24 16.58-45.18 24.46-70 24.46-60.51 0-99.88-38.55-99.88-97.4 0-54.3 34.81-97.4 96.15-97.4 48.08 0 86.63 34 86.63 85.38a108.36 108.36 0 0 1-2.07 22.38h-143.46c2.9 35.23 28.6 55.95 65.07 55.95 24 0 45.18-8.29 57.2-19.48zm-134.7-89.52h113.15c-1.66-30.67-21.55-49.74-53.88-49.74-33.99 0-55.54 21.14-59.27 49.74zm319.55 110.66h-38.54L1375 29.84h54.29L1515.52 245 1598 29.84h51zM1715.7 38.55a27.4 27.4 0 0 1 27.36 27.77c0 19.06-13.68 29.84-27.36 29.84-16.16 0-29.84-10.78-29.84-29.84 0-17 13.68-27.77 29.84-27.77zm-24.87 94.91h47.67V320h-47.67zm237.5 167.03c-12.44 13.27-29.43 22.8-53.47 22.8-53.47 0-87.87-37.72-87.87-94.5 0-58.86 42.28-99.89 102.38-99.89 16.57 0 28.59 2.9 39 9.12V29.84H1976V320h-47.66zm0-40.61v-75c-12-7.46-24-11.2-36.89-11.2-28.19 0-53.47 19.07-53.47 53.47 0 33.16 21.55 51.81 46.84 51.81 17.4-.02 32.74-8.31 43.52-19.08z"></path>
    <path d="M159.61 341.91L4.89 187.19a16.69 16.69 0 0 1 0-23.61L163.33 5.15a16.69 16.69 0 0 1 23.61 0l154.72 154.71a16.69 16.69 0 0 1 0 23.61L183.22 341.91a16.69 16.69 0 0 1-23.61 0zm-37.26-239.18c.13 48.86.07 97.71.08 146.56 0 4.93 2.65 8.37 7.09 9.29a3.43 3.43 0 0 0 2.5-.36c41.59-22.29 83.25-44.45 124.25-67.81a155.41 155.41 0 0 0 13.73-8.36c4.48-3.18 5.28-8.12 2.17-12.63a6.1 6.1 0 0 0-2.19-1.91l-137.32-76c-.47-.26-.91-.57-1.36-.86H129c-5.63 2.17-6.66 6.57-6.65 12.08z"></path>
  </symbol>
  <symbol xmlns="http://www.w3.org/2000/svg" viewBox="0 0 32 32" id="icon-bell">
    <path d="M24 18v-8c0-5.5-4.5-10-10-10S4 4.5 4 10v8l-4 8h9.1c.5 2.3 2.5 4 4.9 4s4.4-1.7 4.9-4H28l-4-8zM14 28c-1.3 0-2.4-.8-2.8-2h5.6c-.4 1.2-1.5 2-2.8 2zM3 24l3-6v-8c0-4.4 3.6-8 8-8s8 3.6 8 8v8l3 6H3z" fill="#fff"></path>
  </symbol>
  <symbol xmlns="http://www.w3.org/2000/svg" viewBox="0 0 32 32" id="icon-dashboard">
    <path d="M25 18c1.7 0 3-1.3 3-3s-1.3-3-3-3-3 1.3-3 3 1.3 3 3 3zm-1-4h2v2h-2v-2zm1 12c1.7 0 3-1.3 3-3s-1.3-3-3-3-3 1.3-3 3 1.3 3 3 3zm-1-4h2v2h-2v-2zm-7 4c1.7 0 3-1.3 3-3s-1.3-3-3-3-3 1.3-3 3 1.3 3 3 3zm-1-4h2v2h-2v-2zM28 0H6C3.8 0 2 1.8 2 4v24c0 2.2 1.8 4 4 4h22c2.2 0 4-1.8 4-4V4c0-2.2-1.8-4-4-4zm2 28c0 1.1-.9 2-2 2H6c-1.1 0-2-.9-2-2V8h26v20zm0-22H4V4c0-1.1.9-2 2-2h22c1.1 0 2 .9 2 2v2zM17 18c1.7 0 3-1.3 3-3s-1.3-3-3-3-3 1.3-3 3 1.3 3 3 3zm-1-4h2v2h-2v-2zM9 26c1.7 0 3-1.3 3-3s-1.3-3-3-3-3 1.3-3 3 1.3 3 3 3zm-1-4h2v2H8v-2zm1-4c1.7 0 3-1.3 3-3s-1.3-3-3-3-3 1.3-3 3 1.3 3 3 3zm-1-4h2v2H8v-2z"
      fill="#fff"></path>
  </symbol>
  <symbol viewBox="0 0 56.693 56.693" xmlns="http://www.w3.org/2000/svg" id="icon-facebook">
    <path fill="green" d="M40.43 21.739h-7.645v-5.014c0-1.883 1.248-2.322 2.127-2.322h5.395V6.125l-7.43-.029c-8.248 0-10.125 6.174-10.125 10.125v5.518h-4.77v8.53h4.77v24.137h10.033V30.269h6.77l.875-8.53z"></path>
  </symbol>
  <symbol xmlns="http://www.w3.org/2000/svg" viewBox="0 0 32 32" id="icon-google-plus">
    <path fill="#00f" d="M17.7 25.7c0-.3 0-.5-.1-.8-.1-.2-.1-.5-.2-.7-.1-.2-.2-.4-.3-.7-.2-.2-.3-.4-.4-.6-.1-.2-.3-.3-.5-.6l-.5-.5c-.1-.1-.3-.3-.6-.5s-.5-.4-.6-.4-.3-.2-.6-.4-.5-.4-.6-.4h-1c-.7 0-1.4 0-2 .1-.7.1-1.4.2-2.1.5-.7.2-1.3.5-1.9.9s-1 .8-1.3 1.4c-.3.6-.5 1.3-.5 2.1 0 .9.2 1.7.7 2.3.5.7 1.1 1.2 1.8 1.6s1.5.7 2.3.9 1.6.3 2.4.3c.8 0 1.5-.1 2.2-.2.7-.2 1.3-.4 1.9-.8.6-.3 1.1-.8 1.4-1.4.3-.6.5-1.3.5-2.1zM15.4 9.1c0-.8-.1-1.6-.3-2.5-.2-.9-.5-1.7-.9-2.5s-.9-1.5-1.6-2c-.7-.5-1.5-.8-2.3-.8-1.2 0-2.1.4-2.8 1.3-.7.9-1 1.9-1 3.2 0 .6.1 1.2.2 1.9s.4 1.3.7 2c.3.7.7 1.3 1.1 1.8.4.5.9 1 1.5 1.3.6.3 1.2.5 1.9.5 1.2 0 2.1-.4 2.7-1.2.5-.7.8-1.7.8-3zM12.9 0h8.4l-2.6 1.5h-2.6c.9.6 1.6 1.4 2.1 2.4S19 6 19 7.1c0 .9-.1 1.8-.4 2.5-.3.7-.7 1.3-1.1 1.8-.4.4-.8.9-1.3 1.2-.4.4-.8.8-1.1 1.2-.3.4-.4.8-.4 1.3 0 .3.1.7.3 1 .2.3.5.6.8.9.3.3.7.6 1.1.9.4.3.8.7 1.2 1.1.4.4.8.8 1.1 1.3.3.5.6 1 .8 1.6.2.6.3 1.3.3 2 0 2.1-.9 3.9-2.7 5.4-1.9 1.7-4.6 2.5-8.1 2.5-.8 0-1.5-.1-2.3-.2-.8-.1-1.6-.3-2.3-.6-.8-.3-1.5-.7-2.1-1.1-.6-.4-1.1-1-1.5-1.7C1 27.6.8 26.9.8 26c0-.8.2-1.6.7-2.6.4-.8 1-1.5 1.8-2.1.8-.6 1.8-1.1 2.8-1.4 1-.3 2-.5 3-.7.9-.1 1.9-.2 2.9-.3-.8-1.1-1.2-2-1.2-2.9v-.5c0-.1.1-.3.1-.4 0-.1.1-.2.2-.4s.1-.3.1-.4c-.5.1-1 .1-1.3.1-1.9 0-3.5-.6-4.9-1.9-1.4-1.3-2-2.8-2-4.7C3 6 3.6 4.4 4.8 3 6 1.7 7.5.8 9.3.4c1.2-.3 2.4-.4 3.6-.4zm19.9 4.9v2.5h-4.9v4.9h-2.5V7.4h-4.9V4.9h4.9V0h2.5v4.9h4.9z"></path>
  </symbol>
  <symbol xmlns="http://www.w3.org/2000/svg" viewBox="0 0 32 32" id="icon-members">
    <path d="M18 16.4c1.3-1.7 2-3.9 2-6.4 0-5.5-4-10-9-10S2 4.5 2 10c0 2.4.8 4.6 2 6.4-2.3.8-4 3-4 5.6v4c0 3.3 2.7 6 6 6h10c3.3 0 6-2.7 6-6v-4c0-2.6-1.7-4.8-4-5.6zM4 10c0-4.4 3.1-8 7-8s7 3.6 7 8-3.1 8-7 8-7-3.6-7-8zm16 15.5c0 2.5-2.2 4.5-4.9 4.5H6.9C4.2 30 2 28 2 25.5v-3c0-2.1 1.6-3.9 3.8-4.4C7.2 19.3 9 20 11 20s3.8-.7 5.2-1.9c2.2.5 3.8 2.2 3.8 4.4v3zM23 8h8c.6 0 1-.4 1-1s-.4-1-1-1h-8c-.6 0-1 .4-1 1s.4 1 1 1zm8 16h-6c-.6 0-1 .4-1 1s.4 1 1 1h6c.6 0 1-.4 1-1s-.4-1-1-1zm0-12h-8c-.6 0-1 .4-1 1s.4 1 1 1h8c.6 0 1-.4 1-1s-.4-1-1-1zm0 6h-6c-.6 0-1 .4-1 1s.4 1 1 1h6c.6 0 1-.4 1-1s-.4-1-1-1z"
      fill="#fff"></path>
  </symbol>
</svg>